<svg xmlns="http://www.w3.org/2000/svg" viewBox="0 0 438.2 506"><defs><linearGradient id="ace82f303-4552-481b-98b0-bb461550eba7" x1="219.1" y1="506" x2="219.1" gradientUnits="userSpaceOnUse"><stop offset="0" stop-color="#0e5cad"/><stop offset="1" stop-color="#79f1a4"/></linearGradient></defs><g><path d="M438.2 126.51v161.24l-40.49-23.41h-.08V149.92L219.1 46.86l-58.47 33.76L354.9 192.81v46.82L120.06 104l-58.87 34 336.44 194.3 40.57 23.41v23.78l-20 11.51-58.83 34-40.57 23.41-58.83 34-40.57 23.42-.28.16L0 379.49v-162l40.57 23.41v114.85L219.38 459l58.83-34L83.34 312.5v-46.86l235.45 136 58.87-34L40.57 173 0 149.56v-23l20.61-11.88 58.87-34 40.57-23.41 58.83-34L219.1 0z" fill="url(#ace82f303-4552-481b-98b0-bb461550eba7)"/></g></svg>